<?xml version="1.0" encoding="UTF-8" standalone="no"?>
<!DOCTYPE svg PUBLIC "-//W3C//DTD SVG 1.1//EN" "http://www.w3.org/Graphics/SVG/1.1/DTD/svg11.dtd">
<!-- Created with Vectornator (http://vectornator.io/) -->
<svg height="20px" stroke-miterlimit="10" style="fill-rule:nonzero;clip-rule:evenodd;stroke-linecap:round;stroke-linejoin:round;" version="1.1" viewBox="0 0 489.1 489.1" width="20px" xml:space="preserve" xmlns="http://www.w3.org/2000/svg" xmlns:vectornator="http://vectornator.io" xmlns:xlink="http://www.w3.org/1999/xlink">
<defs/>
<g id="Untitled" vectornator:layerName="Untitled">
<g opacity="1" vectornator:layerName="g">
<path d="M180.1 370.6C176.2 366.7 169.9 366.7 166 370.6L145.4 391.2C141.5 395.1 141.5 401.4 145.4 405.3C147.4 407.2 149.9 408.2 152.5 408.2C155 408.2 157.6 407.2 159.5 405.2L180.1 384.7C184 380.8 184 374.5 180.1 370.6Z" fill="#ffffff" fill-rule="nonzero" opacity="1" stroke="none" vectornator:layerName="path"/>
<path d="M246.6 370.7L226.8 391.3C223 395.2 223.1 401.6 227.1 405.4C229 407.3 231.5 408.2 234 408.2C236.7 408.2 239.3 407.1 241.2 405.1L261 384.5C264.8 380.6 264.7 374.2 260.7 370.4C256.8 366.6 250.4 366.7 246.6 370.7Z" fill="#ffffff" fill-rule="nonzero" opacity="1" stroke="none" vectornator:layerName="path"/>
<path d="M328.3 370.6L307.7 391.2C303.8 395.1 303.8 401.4 307.7 405.3C309.7 407.2 312.2 408.2 314.8 408.2C317.4 408.2 319.9 407.2 321.8 405.3L342.4 384.7C346.3 380.8 346.3 374.5 342.4 370.6C338.5 366.7 332.2 366.7 328.3 370.6Z" fill="#ffffff" fill-rule="nonzero" opacity="1" stroke="none" vectornator:layerName="path"/>
<path d="M409.9 370.6L389.3 391.2C385.4 395.1 385.4 401.4 389.3 405.3C391.3 407.2 393.8 408.2 396.4 408.2C398.9 408.2 401.5 407.2 403.5 405.2L424 384.7C427.9 380.8 427.9 374.5 424 370.6C420.1 366.7 413.8 366.7 409.9 370.6Z" fill="#ffffff" fill-rule="nonzero" opacity="1" stroke="none" vectornator:layerName="path"/>
<path d="M84.4 370.6L63.8 391.2C59.9 395.1 59.9 401.4 63.8 405.3C65.8 407.2 68.3 408.2 70.9 408.2C73.5 408.2 76 407.2 77.9 405.3L98.5 384.7C102.4 380.8 102.4 374.5 98.5 370.6C94.6 366.7 88.3 366.7 84.4 370.6Z" fill="#ffffff" fill-rule="nonzero" opacity="1" stroke="none" vectornator:layerName="path"/>
<path d="M206.4 441.6L185.8 462.2C181.9 466.1 181.9 472.4 185.8 476.3C187.8 478.2 190.3 479.2 192.9 479.2C195.4 479.2 198 478.2 199.9 476.3L220.5 455.7C224.4 451.8 224.4 445.5 220.5 441.6C216.6 437.7 210.3 437.7 206.4 441.6Z" fill="#ffffff" fill-rule="nonzero" opacity="1" stroke="none" vectornator:layerName="path"/>
<path d="M287.9 441.6L267.3 462.2C263.4 466.1 263.4 472.4 267.3 476.3C269.3 478.2 271.8 479.2 274.4 479.2C277 479.2 279.5 478.2 281.5 476.3L302 455.7C305.9 451.8 305.9 445.5 302 441.6C298.1 437.7 291.8 437.7 287.9 441.6Z" fill="#ffffff" fill-rule="nonzero" opacity="1" stroke="none" vectornator:layerName="path"/>
<path d="M368.6 441.7L348.8 462.3C345 466.2 345.1 472.6 349.1 476.4C351 478.3 353.5 479.2 356 479.2C358.6 479.2 361.2 478.2 363.2 476.1L383 455.5C386.8 451.6 386.7 445.2 382.7 441.4C378.8 437.6 372.4 437.7 368.6 441.7Z" fill="#ffffff" fill-rule="nonzero" opacity="1" stroke="none" vectornator:layerName="path"/>
<path d="M124.7 441.7L104.9 462.3C101.1 466.2 101.2 472.6 105.2 476.4C107.1 478.3 109.6 479.2 112.1 479.2C114.7 479.2 117.3 478.2 119.3 476.1L139.1 455.5C142.9 451.6 142.8 445.2 138.8 441.4C134.9 437.6 128.5 437.7 124.7 441.7Z" fill="#ffffff" fill-rule="nonzero" opacity="1" stroke="none" vectornator:layerName="path"/>
<path d="M397.5 71.1C389.5 71.1 380.9 72.4 372.8 74.8C351.3 35.1 310.2 9.90001 265.7 9.90001C239.5 9.90001 214.4 18.2 193.2 33.9C175.1 47.3 160.9 65.7 152.5 86.3C142.7 83.8 132.4 82.4 122 82.4C54.7 82.4 5.68434e-14 136.9 5.68434e-14 204C5.68434e-14 271.4 54.7 326.3 122 326.3L253.9 326.3C297.6 326.3 334.2 295.5 343.3 254.5L397.5 254.5C448 254.5 489.1 213.3 489.1 162.7C489.1 112.3 448 71.1 397.5 71.1ZM253.8 306.4L253.8 306.4L122 306.4C65.7 306.4 20 260.5 20 204.1C20 148.1 65.8 102.5 122 102.5C162.6 102.5 199.1 126.2 215 162.9C217.1 167.8 222.8 170.2 227.8 168.3C236 165.2 244.5 163.6 253.9 163.6C293.4 163.6 325.5 195.4 325.5 234.6C325.4 274.2 293.3 306.4 253.8 306.4ZM397.5 234.6L397.5 234.6L345.4 234.6C345.4 210.2 335.8 187.3 318.5 170.1C301.2 153 278.3 143.6 253.8 143.6C245.2 143.6 237.1 144.6 229.3 146.7C216.5 122.4 195.9 103.7 171.4 92.8C187.1 55.3 224.7 29.8 265.6 29.8C305.3 29.8 341.8 53.9 358.6 91.2C360.8 96.1 366.6 98.4 371.6 96.3C379.7 92.9 389.2 91 397.5 91C437 91 469.1 123.2 469.1 162.8C469.1 202.4 437 234.6 397.5 234.6Z" fill="#ffffff" fill-rule="nonzero" opacity="1" stroke="none" vectornator:layerName="path"/>
</g>
</g>
</svg>
