<?xml version="1.0" encoding="UTF-8" standalone="no"?>
<!DOCTYPE svg PUBLIC "-//W3C//DTD SVG 1.1//EN" "http://www.w3.org/Graphics/SVG/1.1/DTD/svg11.dtd">
<!-- Created with Vectornator (http://vectornator.io/) -->
<svg height="95" width="120" stroke-miterlimit="10" style="fill-rule:nonzero;clip-rule:evenodd;stroke-linecap:round;stroke-linejoin:round;" version="1.1" viewBox="25 22 120 95"  xml:space="preserve" xmlns="http://www.w3.org/2000/svg" xmlns:vectornator="http://vectornator.io" xmlns:xlink="http://www.w3.org/1999/xlink">
<defs>
<radialGradient cx="0" cy="0" gradientTransform="matrix(-12.0069 29.5487 -52.0365 -21.1446 112.762 34)" gradientUnits="userSpaceOnUse" id="RadialGradient" r="1">
<stop offset="0" stop-color="#ffc100"/>
<stop offset="1" stop-color="#ff3100"/>
</radialGradient>
<linearGradient gradientTransform="matrix(1 0 0 1 0 0)" gradientUnits="userSpaceOnUse" id="LinearGradient" x1="89.1873" x2="89.1873" y1="31.2979" y2="60.5051">
<stop offset="0" stop-color="#ffc100"/>
<stop offset="1" stop-color="#ff8e00"/>
</linearGradient>
<linearGradient gradientTransform="matrix(1 0 0 1 0 0)" gradientUnits="userSpaceOnUse" id="LinearGradient_2" x1="102.936" x2="102.936" y1="22.1927" y2="24.8367">
<stop offset="0" stop-color="#ffc100"/>
<stop offset="1" stop-color="#ff8e00"/>
</linearGradient>
<linearGradient gradientTransform="matrix(1 0 0 1 0 0)" gradientUnits="userSpaceOnUse" id="LinearGradient_3" x1="124.754" x2="123.05" y1="29.613" y2="31.6442">
<stop offset="0" stop-color="#ffc100"/>
<stop offset="1" stop-color="#ff8e00"/>
</linearGradient>
<linearGradient gradientTransform="matrix(1 0 0 1 0 0)" gradientUnits="userSpaceOnUse" id="LinearGradient_4" x1="136.68" x2="134.064" y1="49.2756" y2="49.7368">
<stop offset="0" stop-color="#ffc100"/>
<stop offset="1" stop-color="#ff8e00"/>
</linearGradient>
<linearGradient gradientTransform="matrix(1 0 0 1 0 0)" gradientUnits="userSpaceOnUse" id="LinearGradient_5" x1="133.122" x2="130.823" y1="71.9698" y2="70.6424">
<stop offset="0" stop-color="#ffc100"/>
<stop offset="1" stop-color="#ff8e00"/>
</linearGradient>
<linearGradient gradientTransform="matrix(1 0 0 1 0 0)" gradientUnits="userSpaceOnUse" id="LinearGradient_6" x1="115.751" x2="114.846" y1="87.0737" y2="84.5862">
<stop offset="0" stop-color="#ffc100"/>
<stop offset="1" stop-color="#ff8e00"/>
</linearGradient>
<linearGradient gradientTransform="matrix(1 0 0 1 0 0)" gradientUnits="userSpaceOnUse" id="LinearGradient_7" x1="92.6992" x2="93.6046" y1="87.5288" y2="85.0413">
<stop offset="0" stop-color="#ffc100"/>
<stop offset="1" stop-color="#ff8e00"/>
</linearGradient>
<linearGradient gradientTransform="matrix(1 0 0 1 0 0)" gradientUnits="userSpaceOnUse" id="LinearGradient_8" x1="74.7416" x2="77.0407" y1="73.1201" y2="71.7927">
<stop offset="0" stop-color="#ffc100"/>
<stop offset="1" stop-color="#ff8e00"/>
</linearGradient>
<linearGradient gradientTransform="matrix(1 0 0 1 0 0)" gradientUnits="userSpaceOnUse" id="LinearGradient_9" x1="70.29" x2="72.9055" y1="50.5796" y2="51.0408">
<stop offset="0" stop-color="#ffc100"/>
<stop offset="1" stop-color="#ff8e00"/>
</linearGradient>
<linearGradient gradientTransform="matrix(1 0 0 1 0 0)" gradientUnits="userSpaceOnUse" id="LinearGradient_10" x1="81.4261" x2="83.1304" y1="30.4685" y2="32.4996">
<stop offset="0" stop-color="#ffc100"/>
<stop offset="1" stop-color="#ff8e00"/>
</linearGradient>
<radialGradient cx="0" cy="0" gradientTransform="matrix(-3.95545e-06 90.4901 -140.715 -6.15085e-06 88.4108 56.5049)" gradientUnits="userSpaceOnUse" id="RadialGradient_2" r="1">
<stop offset="0" stop-color="#ffffff"/>
<stop offset="1" stop-color="#dee5ee"/>
</radialGradient>
<radialGradient cx="0" cy="0" gradientTransform="matrix(-3.95545e-06 90.4901 -140.715 -6.15085e-06 88.4108 56.5049)" gradientUnits="userSpaceOnUse" id="RadialGradient_3" r="1">
<stop offset="0" stop-color="#ffffff" stop-opacity="0.103027"/>
<stop offset="1" stop-color="#dee5ee"/>
</radialGradient>
</defs>
<g id="Untitled" vectornator:layerName="Untitled">
<path d="M83 55C83 43.402 92.402 34 104 34C115.598 34 125 43.402 125 55C125 66.598 115.598 76 104 76C92.402 76 83 66.598 83 55Z" fill="url(#RadialGradient)" fill-rule="nonzero" opacity="1" stroke="none" vectornator:layerName="circle"/>
<path d="M77.3723 55.5696C77.3723 40.9894 89.2102 29.1698 103.813 29.1698C118.416 29.1698 130.254 40.9894 130.254 55.5696C130.254 70.1498 118.416 81.9694 103.813 81.9694C89.2102 81.9694 77.3723 70.1498 77.3723 55.5696Z" fill="url(#LinearGradient)" fill-rule="nonzero" opacity="1" stroke="none" vectornator:layerName="ellipse"/>
<path d="M103.595 22L103.605 22C104.265 22 104.8 22.5351 104.8 23.1952L104.8 25.5847C104.8 26.2448 104.265 26.7799 103.605 26.7799L103.595 26.7799C102.935 26.7799 102.4 26.2448 102.4 25.5847L102.4 23.1952C102.4 22.5351 102.935 22 103.595 22Z" fill="url(#LinearGradient_2)" fill-rule="nonzero" opacity="1" stroke="none" vectornator:layerName="rect"/>
<path d="M123.704 30.0399C124.128 29.5366 124.882 29.4727 125.387 29.8947C125.895 30.3192 125.963 31.0775 125.536 31.5837L123.991 33.4173C123.567 33.9206 122.814 33.9846 122.309 33.5626C121.801 33.1381 121.733 32.3798 122.159 31.8736L123.704 30.0399Z" fill="url(#LinearGradient_3)" fill-rule="evenodd" opacity="1" stroke="none" vectornator:layerName="path"/>
<path d="M135.601 48.9254C136.251 48.8114 136.87 49.2449 136.985 49.8942C137.1 50.5448 136.665 51.1654 136.014 51.2797L133.642 51.6963C132.992 51.8103 132.373 51.3768 132.258 50.7276C132.143 50.077 132.577 49.4563 133.228 49.3421L135.601 48.9254Z" fill="url(#LinearGradient_4)" fill-rule="evenodd" opacity="1" stroke="none" vectornator:layerName="path"/>
<path d="M132.518 71.004C133.092 71.3339 133.288 72.068 132.956 72.6406C132.626 73.2102 131.896 73.4063 131.326 73.0781L129.241 71.8796C128.667 71.5498 128.471 70.8156 128.803 70.2431C129.134 69.6735 129.863 69.4774 130.434 69.8055L132.518 71.004Z" fill="url(#LinearGradient_5)" fill-rule="evenodd" opacity="1" stroke="none" vectornator:layerName="path"/>
<path d="M115.911 85.9456C116.138 86.5667 115.813 87.2556 115.191 87.481C114.572 87.7055 113.884 87.3878 113.658 86.769L112.836 84.5226C112.609 83.9014 112.934 83.2125 113.556 82.9872C114.175 82.7627 114.863 83.0803 115.09 83.6991L115.911 85.9456Z" fill="url(#LinearGradient_6)" fill-rule="evenodd" opacity="1" stroke="none" vectornator:layerName="path"/>
<path d="M93.5424 86.769C93.3162 87.3878 92.628 87.7055 92.0086 87.481C91.3869 87.2556 91.0623 86.5667 91.2894 85.9456L92.1105 83.6991C92.3366 83.0803 93.0248 82.7627 93.6442 82.9872C94.266 83.2125 94.5905 83.9014 94.3635 84.5226L93.5424 86.769Z" fill="url(#LinearGradient_7)" fill-rule="evenodd" opacity="1" stroke="none" vectornator:layerName="path"/>
<path d="M75.8741 73.0781C75.3033 73.4063 74.5741 73.2101 74.2439 72.6406C73.9119 72.068 74.1079 71.3339 74.6816 71.004L76.7662 69.8055C77.337 69.4774 78.0662 69.6735 78.3964 70.2431C78.7284 70.8156 78.5324 71.5498 77.9587 71.8796L75.8741 73.0781Z" fill="url(#LinearGradient_8)" fill-rule="evenodd" opacity="1" stroke="none" vectornator:layerName="path"/>
<path d="M71.1854 51.2797C70.5346 51.1654 70.1001 50.5448 70.2153 49.8942C70.3302 49.2449 70.9493 48.8114 71.5988 48.9255L73.9716 49.3421C74.6224 49.4564 75.0569 50.077 74.9417 50.7276C74.8268 51.3769 74.2077 51.8104 73.5582 51.6963L71.1854 51.2797Z" fill="url(#LinearGradient_9)" fill-rule="evenodd" opacity="1" stroke="none" vectornator:layerName="path"/>
<path d="M81.6635 31.5837C81.2369 31.0775 81.3052 30.3192 81.8132 29.8947C82.3182 29.4727 83.0715 29.5366 83.4956 30.0399L85.0407 31.8736C85.4673 32.3798 85.399 33.1381 84.891 33.5626C84.3859 33.9846 83.6326 33.9206 83.2085 33.4173L81.6635 31.5837Z" fill="url(#LinearGradient_10)" fill-rule="evenodd" opacity="1" stroke="none" vectornator:layerName="path"/>
<path d="M117.034 117L63.923 117C63.9148 117 63.9065 117 63.8983 117C63.8901 117 63.8818 117 63.8736 117L62.1186 117L62.1186 116.96C41.4618 116.038 25 99.1335 25 78.4156C25 57.1061 42.4154 39.8313 63.8983 39.8313C81.1172 39.8313 95.723 50.9291 100.843 66.3072C105.412 63.0623 111 61.1542 117.034 61.1542C132.479 61.1542 145 73.6557 145 89.0771C145 104.159 133.025 116.447 118.051 116.982L118.051 117L117.034 117Z" fill="url(#RadialGradient_2)" fill-rule="evenodd" opacity="1" stroke="none" vectornator:layerName="path"/>
<path d="M117.034 117L63.923 117C63.9148 117 63.9065 117 63.8983 117C63.8901 117 63.8818 117 63.8736 117L62.1186 117L62.1186 116.96C41.4618 116.038 25 99.1335 25 78.4156C25 57.1061 42.4154 39.8313 63.8983 39.8313C81.1172 39.8313 95.723 50.9291 100.843 66.3072C105.412 63.0623 111 61.1542 117.034 61.1542C132.479 61.1542 145 73.6557 145 89.0771C145 104.159 133.025 116.447 118.051 116.982L118.051 117L117.034 117Z" fill="url(#RadialGradient_3)" fill-rule="evenodd" opacity="1" stroke="none" vectornator:layerName="path"/>
</g>
</svg>
